:version 1.10
:name ASF
:units
  mass 1
  length 1
  angle deg
:documentation
  ASF file generated by Kaydara
:root
  axis xyz
  order  tx ty tz rx ry rz
  position 0 0 0
  orientation 0 0 0
:bonedata
  begin
    id 1
    name RightUpLegDummy
    direction -0.65628 -0.754516 0.00165102
    length 4.76918
    axis 0 0 0 xyz
  end
  begin
    id 2
    name RightUpLeg
    direction -0.145584 -0.923362 0.355256
    length 17.9961
    axis -24.7611 -13.1006 1.78531 xyz
    dof rx ry rz
  end
  begin
    id 3
    name RightLeg
    direction 0.263379 0.172355 -0.949171
    length 13.3386
    axis 89.6202 -21.1929 12.3855 xyz
    dof rx ry rz
  end
  begin
    id 4
    name RightFoot
    direction 0.224283 -0.968777 -0.105675
    length 5.86697
    axis 56.995 -39.6905 17.3365 xyz
    dof rx ry rz
  end
  begin
    id 5
    name RightToes
    direction -0.0806345 -0.9037 0.420506
    length 4.75197
    axis 146.825 -39.7828 17.6019 xyz
    dof rx ry rz
  end
  begin
    id 6
    name SpineDummy
    direction -3.39852e-014 1 9.33296e-014
    length 8.13779
    axis 0 0 0 xyz
  end
  begin
    id 7
    name Spine
    direction -0.156609 0.733703 0.661176
    length 7.14978
    axis 41.2365 5.68757 17.0844 xyz
    dof rx ry rz
  end
  begin
    id 8
    name Spine1
    direction 0 0 0
    length 0
    axis 42.8809 47.8308 -3.36039 xyz
    dof rx ry rz
  end
  begin
    id 9
    name HEadDummy
    direction 0.546431 0.701947 0.456819
    length 3.55512
    axis 42.8809 47.8308 -3.36039 xyz
  end
  begin
    id 10
    name HEad
    direction 0.23444 0.828559 0.508457
    length 7.35827
    axis 51.1864 49.2662 27.4903 xyz
    dof rx ry rz
  end
  begin
    id 11
    name LeftShoulder1Dummy
    direction 0.431183 0.475873 -0.766568
    length 2.49352
    axis 42.8809 47.8308 -3.36039 xyz
  end
  begin
    id 12
    name LeftShoulder1
    direction 0.268187 -0.383402 -0.883786
    length 4.48604
    axis -119.517 0.106469 35.1736 xyz
    dof rx ry rz
  end
  begin
    id 13
    name LeftArm
    direction 0.380567 -0.703221 -0.600541
    length 10.1142
    axis -5.41825 36.2925 7.8293 xyz
    dof rx ry rz
  end
  begin
    id 14
    name LeftForeArm
    direction 0.541071 -0.732356 -0.413396
    length 9.39839
    axis 4.65387 33.7604 7.81644 xyz
    dof rx ry rz
  end
  begin
    id 15
    name LeftHand
    direction 0.847511 -0.389379 -0.360707
    length 3.66142
    axis 7.65593 21.1436 -24.6758 xyz
    dof rx ry rz
  end
  begin
    id 16
    name RightShoulderDummy
    direction -0.692546 0.541855 0.476208
    length 2.49352
    axis 42.8809 47.8308 -3.36039 xyz
  end
  begin
    id 17
    name RightShoulder
    direction -0.870808 -0.316653 0.376065
    length 4.48602
    axis 141.571 51.133 -100.254 xyz
    dof rx ry rz
  end
  begin
    id 18
    name RightArm
    direction 0.366897 -0.87275 0.322015
    length 10.1142
    axis 92.3258 71.2036 138.917 xyz
    dof rx ry rz
  end
  begin
    id 19
    name RightForeArm
    direction 0.702487 -0.694568 0.155197
    length 9.39835
    axis 153.863 41.5092 -176.604 xyz
    dof rx ry rz
  end
  begin
    id 20
    name RightHand
    direction 0.79502 -0.601276 0.0800636
    length 3.66142
    axis 154.247 4.59222 142.9 xyz
    dof rx ry rz
  end
  begin
    id 21
    name LeftUpLegDummy
    direction 0.65628 -0.754516 0.00165102
    length 4.76919
    axis 0 0 0 xyz
  end
  begin
    id 22
    name LeftUpLeg
    direction -0.1277 -0.689368 0.713067
    length 17.9961
    axis -48.3385 -17.8675 0.791927 xyz
    dof rx ry rz
  end
  begin
    id 23
    name LeftLeg
    direction 0.109849 -0.991246 -0.0732378
    length 13.3386
    axis -2.05791 -7.30784 1.72042 xyz
    dof rx ry rz
  end
  begin
    id 24
    name LeftFoot
    direction 0.0448355 -0.272614 0.961078
    length 5.86697
    axis -18.7733 -7.89606 10.2113 xyz
    dof rx ry rz
  end
  begin
    id 25
    name LeftToes
    direction -0.18506 0.293668 0.937823
    length 4.75197
    axis 71.2267 -7.89606 10.2113 xyz
    dof rx ry rz
  end
:hierarchy
  begin
    root RightUpLegDummy SpineDummy LeftUpLegDummy
    RightUpLegDummy RightUpLeg
    RightUpLeg RightLeg
    RightLeg RightFoot
    RightFoot RightToes
    SpineDummy Spine
    Spine Spine1
    Spine1 HEadDummy LeftShoulder1Dummy RightShoulderDummy
    HEadDummy HEad
    LeftShoulder1Dummy LeftShoulder1
    LeftShoulder1 LeftArm
    LeftArm LeftForeArm
    LeftForeArm LeftHand
    RightShoulderDummy RightShoulder
    RightShoulder RightArm
    RightArm RightForeArm
    RightForeArm RightHand
    LeftUpLegDummy LeftUpLeg
    LeftUpLeg LeftLeg
    LeftLeg LeftFoot
    LeftFoot LeftToes
  end

:SAMPLES-PER-SECOND 30
:FULLY-SPECIFIED
:DEGREES
256
root  -22.7826 33.4898 13.8109 -0.838867 -37.2055 0.978256
RightUpLeg  -25.3222 18.6333 8.75343
RightLeg  -47.4665 -5.80309 -9.65855
RightFoot  16.0533 7.21319 -19.1455
RightToes  -1.27222e-014 -6.36111e-015 6.36111e-015
Spine  -9.81607 -26.3384 -12.3153
Spine1  0.788342 -21.9352 71.7431
HEad  0.133296 22.3773 -21.0383
LeftShoulder1  6.36111e-015 -1.33558e-015 6.49777e-015
LeftArm  -22.6955 -67.4724 -18.5527
LeftForeArm  0.147386 -40.655 1.8849
LeftHand  -0.216702 1.07952 -6.82928
RightShoulder  -4.77083e-015 -6.36111e-015 -3.18055e-015
RightArm  72.8856 -35.6868 -60.2289
RightForeArm  -5.03148 -3.23669 -7.3813
RightHand  0.305292 2.81946 -7.50886
LeftUpLeg  27.2396 17.639 16.8439
LeftLeg  66.4207 3.36536 26.2586
LeftFoot  -6.13652 1.63937 -6.71527
LeftToes  1.27222e-014 -5.20697e-012 1.80337e-011
257
root  -22.3299 34.2931 14.6375 0.252792 -39.5678 3.31473
RightUpLeg  -25.8222 22.7978 5.9419
RightLeg  -51.5921 -6.38902 -9.99285
RightFoot  17.2982 6.58592 -18.2462
RightToes  -1.27222e-014 -6.36111e-015 6.36111e-015
Spine  -10.5032 -29.3901 -13.2398
Spine1  -1.26728 -23.9401 73.5015
HEad  1.72907 25.934 -20.6372
LeftShoulder1  6.36111e-015 -1.33558e-015 6.49777e-015
LeftArm  -15.815 -65.4047 -27.016
LeftForeArm  -1.99365 -39.5108 2.45837
LeftHand  -0.637681 -0.148001 -7.125
RightShoulder  -4.77083e-015 -6.36111e-015 -3.18055e-015
RightArm  72.9663 -29.9452 -68.7411
RightForeArm  -9.6555 4.04205 -12.2182
RightHand  1.03506 0.701257 -9.22973
LeftUpLeg  32.5109 15.5456 20.1578
LeftLeg  52.3646 9.12799 23.0747
LeftFoot  -6.56365 1.45892 -6.05258
LeftToes  1.27222e-014 -5.20697e-012 1.80337e-011
258
root  -22.0185 35.0377 15.373 0.482285 -39.8894 6.34033
RightUpLeg  -26.141 26.8607 1.74216
RightLeg  -55.6459 -7.80688 -9.21702
RightFoot  17.7915 5.16721 -16.0067
RightToes  -1.27222e-014 -6.36111e-015 6.36111e-015
Spine  -13.2222 -32.9175 -13.7376
Spine1  -1.11335 -26.8939 73.5751
HEad  2.05668 28.4821 -20.5214
LeftShoulder1  6.36111e-015 -1.33558e-015 6.49777e-015
LeftArm  -9.29061 -67.2223 -31.3426
LeftForeArm  -3.55907 -43.4092 4.37759
LeftHand  -1.1086 -1.53847 -7.48487
RightShoulder  -4.77083e-015 -6.36111e-015 -3.18055e-015
RightArm  71.2515 -24.769 -74.3654
RightForeArm  -17.5279 9.44778 -18.5467
RightHand  1.52203 -1.14356 -9.32898
LeftUpLeg  37.3632 14.0557 22.8222
LeftLeg  34.3523 16.4196 18.3876
LeftFoot  -6.02865 1.71179 -6.99107
LeftToes  1.27222e-014 -5.20697e-012 1.80337e-011
259
root  -21.7795 35.6286 15.9838 -0.677948 -39.7108 10.37
RightUpLeg  -26.7297 29.1396 -3.39709
RightLeg  -58.3906 -8.10105 -9.33469
RightFoot  17.0902 4.33516 -14.5276
RightToes  -1.27222e-014 -6.36111e-015 6.36111e-015
Spine  -14.0946 -35.6843 -15.9633
Spine1  -4.21895 -27.8681 74.6352
HEad  3.03812 29.2828 -21.1225
LeftShoulder1  6.36111e-015 -1.33558e-015 6.49777e-015
LeftArm  -2.19802 -69.7578 -36.4649
LeftForeArm  -6.12669 -52.1346 9.34303
LeftHand  -1.34939 -2.33414 -7.2683
RightShoulder  -4.77083e-015 -6.36111e-015 -3.18055e-015
RightArm  69.6437 -16.2822 -78.8836
RightForeArm  -26.5836 12.8044 -25.2829
RightHand  1.38855 -1.75859 -7.37348
LeftUpLeg  43.1749 14.9604 26.0633
LeftLeg  12.708 18.5127 8.0737
LeftFoot  -6.06296 1.71422 -7.00998
LeftToes  1.27222e-014 -5.20697e-012 1.80337e-011
260
root  -21.4206 35.8623 16.4391 -2.67299 -39.6284 14.8486
RightUpLeg  -28.6233 29.7403 -8.89325
RightLeg  -59.0993 -7.87867 -9.75097
RightFoot  15.9274 4.59196 -14.7238
RightToes  -1.27222e-014 -6.36111e-015 6.36111e-015
Spine  -15.8537 -37.6501 -17.2659
Spine1  -5.49599 -28.729 72.7527
HEad  2.10435 29.5963 -21.7449
LeftShoulder1  6.36111e-015 -1.33558e-015 6.49777e-015
LeftArm  1.74262 -70.9209 -37.9788
LeftForeArm  -15.3424 -60.0249 20.0515
LeftHand  -1.47076 -2.80144 -6.74106
RightShoulder  -4.77083e-015 -6.36111e-015 -3.18055e-015
RightArm  66.76 -7.71245 -83.7797
RightForeArm  -34.3975 15.4629 -31.9426
RightHand  1.21952 -1.98321 -5.88822
LeftUpLeg  48.777 17.2824 29.0301
LeftLeg  -5.65554 6.25616 -0.702901
LeftFoot  -5.591 2.22191 -8.97192
LeftToes  1.27222e-014 -5.20697e-012 1.80337e-011
261
root  -20.8506 35.6612 16.7294 -4.52737 -38.9268 18.3448
RightUpLeg  -31.3812 29.5116 -14.0749
RightLeg  -57.9912 -7.92041 -9.45546
RightFoot  14.7539 4.76718 -14.7906
RightToes  -1.27222e-014 -6.36111e-015 6.36111e-015
Spine  -15.9411 -38.5079 -18.1117
Spine1  -7.34832 -28.7218 72.4322
HEad  -0.455283 30.1623 -22.9395
LeftShoulder1  6.36111e-015 -1.33558e-015 6.49777e-015
LeftArm  -0.167531 -69.7427 -33.3594
LeftForeArm  -31.5844 -61.0844 33.3703
LeftHand  -1.64369 -3.41192 -6.19898
RightShoulder  -4.77083e-015 -6.36111e-015 -3.18055e-015
RightArm  61.977 1.5094 -88.3021
RightForeArm  -40.0705 16.6939 -36.827
RightHand  1.35611 -2.76524 -5.63707
LeftUpLeg  50.2449 17.1957 27.4795
LeftLeg  -14.46 -8.04449 -1.06365
LeftFoot  -3.3404 4.41756 -16.5253
LeftToes  1.27222e-014 -5.20697e-012 1.80337e-011
262
root  -20.1195 35.1589 16.8776 -6.01239 -38.2194 19.6283
RightUpLeg  -33.2838 29.499 -17.4448
RightLeg  -55.756 -7.41441 -9.63707
RightFoot  13.2718 4.23303 -13.5527
RightToes  -1.27222e-014 -6.36111e-015 6.36111e-015
Spine  -14.1547 -37.9537 -18.3904
Spine1  -9.09224 -27.9513 73.0028
HEad  -3.98523 30.7654 -24.0229
LeftShoulder1  6.36111e-015 -1.33558e-015 6.49777e-015
LeftArm  -5.55429 -66.432 -25.1045
LeftForeArm  -42.6772 -57.5913 38.5641
LeftHand  -1.7169 -3.77856 -5.12774
RightShoulder  -4.77083e-015 -6.36111e-015 -3.18055e-015
RightArm  55.3688 10.2163 -91.2112
RightForeArm  -41.4433 17.0795 -38.2378
RightHand  1.43291 -3.43658 -5.19031
LeftUpLeg  48.8048 13.587 22.045
LeftLeg  -14.8943 -13.4447 -0.275689
LeftFoot  -4.46395 6.47814 -25.0637
LeftToes  1.27222e-014 -5.20697e-012 1.80337e-011
263
root  -19.4097 34.6344 16.8914 -7.34865 -38.9254 18.8439
RightUpLeg  -33.4996 30.4106 -17.7816
RightLeg  -53.7718 -6.1616 -10.6578
RightFoot  11.9641 3.5139 -11.9579
RightToes  -1.27222e-014 -6.36111e-015 6.36111e-015
Spine  -11.5973 -35.9302 -17.7659
Spine1  -9.58252 -26.6659 72.1679
HEad  -7.29952 31.0686 -24.5492
LeftShoulder1  6.36111e-015 -1.33558e-015 6.49777e-015
LeftArm  -9.1759 -60.3996 -19.1158
LeftForeArm  -44.7405 -54.8799 36.7101
LeftHand  -1.5221 -3.39398 -3.84834
RightShoulder  -4.77083e-015 -6.36111e-015 -3.18055e-015
RightArm  48.958 15.9946 -91.7054
RightForeArm  -37.8094 18.7021 -37.7885
RightHand  0.953257 -2.51486 -3.37396
LeftUpLeg  49.9231 10.4018 19.7328
LeftLeg  -13.1531 -16.4272 -0.0913873
LeftFoot  -9.9575 6.54863 -31.2614
LeftToes  1.27222e-014 -5.20697e-012 1.80337e-011
264
root  -19.1923 34.5212 16.7043 -7.72331 -39.5534 17.6651
RightUpLeg  -32.5641 31.05 -16.3886
RightLeg  -53.8784 -6.29165 -10.5314
RightFoot  11.8168 3.00297 -10.9992
RightToes  -1.27222e-014 -6.36111e-015 6.36111e-015
Spine  -9.52977 -34.5701 -18.5606
Spine1  -9.36099 -25.6237 70.1903
HEad  -10.1225 30.9367 -24.9087
LeftShoulder1  6.36111e-015 -1.33558e-015 6.49777e-015
LeftArm  -9.29389 -51.308 -17.4882
LeftForeArm  -39.0704 -53.7616 31.0727
LeftHand  -1.06379 -2.18151 -3.38249
RightShoulder  -4.77083e-015 -6.36111e-015 -3.18055e-015
RightArm  45.293 16.1949 -89.714
RightForeArm  -32.3832 21.5514 -37.1333
RightHand  0.197111 -0.0850603 -1.35914
LeftUpLeg  52.6179 9.02745 20.1184
LeftLeg  -15.9809 -19.3357 0.835266
LeftFoot  -13.2925 6.24417 -34.7157
LeftToes  1.27222e-014 -5.20697e-012 1.80337e-011
265
root  -19.5884 34.9655 16.2786 -5.44397 -37.0453 16.6801
RightUpLeg  -31.6817 29.9688 -15.6079
RightLeg  -56.5598 -8.549 -8.38551
RightFoot  11.9987 2.73131 -10.5634
RightToes  -1.27222e-014 -6.36111e-015 6.36111e-015
Spine  -8.60609 -34.7315 -20.6861
Spine1  -9.56792 -25.1075 69.8106
HEad  -12.7133 29.5094 -24.7466
LeftShoulder1  6.36111e-015 -1.33558e-015 6.49777e-015
LeftArm  -8.44769 -40.3812 -18.0105
LeftForeArm  -27.4137 -51.6324 21.3874
LeftHand  -0.358235 -0.157336 -3.6156
RightShoulder  -4.77083e-015 -6.36111e-015 -3.18055e-015
RightArm  45.8122 10.8147 -85.7692
RightForeArm  -28.8115 21.4104 -34.3801
RightHand  -0.0687395 1.34007 -1.34951
LeftUpLeg  51.7653 8.01302 20.3003
LeftLeg  -22.0242 -18.0383 2.00459
LeftFoot  -8.87808 7.49823 -34.0455
LeftToes  1.27222e-014 -5.20697e-012 1.80337e-011
266
root  -20.2832 35.7389 15.6636 -0.70343 -31.3889 15.3105
RightUpLeg  -30.777 28.4247 -15.1516
RightLeg  -60.7279 -10.5002 -6.30671
RightFoot  11.0966 2.96855 -10.733
RightToes  -1.27222e-014 -6.36111e-015 6.36111e-015
Spine  -8.91131 -34.7341 -20.9783
Spine1  -10.0412 -24.7791 70.0318
HEad  -14.9858 25.5122 -22.8033
LeftShoulder1  6.36111e-015 -1.33558e-015 6.49777e-015
LeftArm  -8.43235 -30.6538 -18.3807
LeftForeArm  -13.7449 -45.9541 10.2067
LeftHand  0.405795 2.14679 -4.12575
RightShoulder  -4.77083e-015 -6.36111e-015 -3.18055e-015
RightArm  49.8923 2.45168 -80.7492
RightForeArm  -26.5076 14.2189 -26.4118
RightHand  0.442661 0.666983 -4.46055
LeftUpLeg  45.3169 7.15577 20.6988
LeftLeg  -24.2788 -12.5457 1.2391
LeftFoot  2.06836 8.15601 -25.4868
LeftToes  1.27222e-014 -5.20697e-012 1.80337e-011
267
root  -21.0478 36.4442 15.0488 3.53128 -25.4959 13.061
RightUpLeg  -28.2633 29.6048 -12.7959
RightLeg  -64.2384 -10.8601 -6.03988
RightFoot  9.50155 3.55789 -11.3764
RightToes  -1.27222e-014 -6.36111e-015 6.36111e-015
Spine  -9.81784 -32.5014 -17.8236
Spine1  -10.3623 -23.9677 67.2859
HEad  -16.2489 19.3082 -19.7312
LeftShoulder1  6.36111e-015 -1.33558e-015 6.49777e-015
LeftArm  -7.14167 -25.778 -17.7182
LeftForeArm  -3.72451 -37.3749 2.5092
LeftHand  0.515615 3.18781 -6.37163
RightShoulder  -4.77083e-015 -6.36111e-015 -3.18055e-015
RightArm  55.4013 -6.17875 -74.8047
RightForeArm  -24.5982 0.338916 -15.5446
RightHand  1.26101 -0.194169 -9.20215
LeftUpLeg  36.0625 4.1502 19.0835
LeftLeg  -16.4252 -3.10132 -1.9034
LeftFoot  10.6571 5.42405 -13.5779
LeftToes  1.27222e-014 -5.20697e-012 1.80337e-011
268
root  -21.7924 36.6755 14.6431 4.89221 -20.7793 10.0221
RightUpLeg  -23.8019 33.3108 -7.90436
RightLeg  -65.0767 -11.0213 -5.85564
RightFoot  8.82593 3.64628 -11.3553
RightToes  -1.27222e-014 -6.36111e-015 6.36111e-015
Spine  -10.0271 -28.0896 -12.473
Spine1  -10.7125 -22.3171 62.0013
HEad  -15.4993 13.4275 -18.2043
LeftShoulder1  6.36111e-015 -1.33558e-015 6.49777e-015
LeftArm  1.22543 -30.0353 -17.7315
LeftForeArm  -0.856178 -26.5717 -0.727592
LeftHand  -0.304574 2.20246 -11.286
RightShoulder  -4.77083e-015 -6.36111e-015 -3.18055e-015
RightArm  60.8082 -13.4065 -66.099
RightForeArm  -24.1283 -13.2359 -7.9773
RightHand  1.62626 -0.321645 -11.6278
LeftUpLeg  28.2112 2.19798 18.4196
LeftLeg  2.73985 2.48822 0.586579
LeftFoot  9.09792 3.95332 -10.3162
LeftToes  1.27222e-014 -5.20697e-012 1.80337e-011
269
root  -22.4959 36.3467 14.5007 3.68291 -15.7938 7.01579
RightUpLeg  -18.7072 34.5977 -2.22315
RightLeg  -62.6689 -12.185 -3.98662
RightFoot  8.80578 3.03276 -10.1735
RightToes  -1.27222e-014 -6.36111e-015 6.36111e-015
Spine  -10.4454 -23.8028 -7.69624
Spine1  -8.81697 -20.5547 57.9191
HEad  -13.8635 10.6225 -19.7043
LeftShoulder1  6.36111e-015 -1.33558e-015 6.49777e-015
LeftArm  16.1194 -38.6241 -20.7164
LeftForeArm  -2.35197 -19.2114 -2.53036
LeftHand  -1.27725 -0.178509 -15.217
RightShoulder  -4.77083e-015 -6.36111e-015 -3.18055e-015
RightArm  63.7528 -18.8001 -53.3533
RightForeArm  -24.7278 -17.9659 -5.82832
RightHand  1.43338 0.0467944 -10.9551
LeftUpLeg  23.6415 1.31479 16.6907
LeftLeg  28.4438 2.65555 5.27943
LeftFoot  2.98962 3.94035 -12.105
LeftToes  1.27222e-014 -5.20697e-012 1.80337e-011
